HIERARCHY
ROOT Hips
{
	OFFSET -14.64140 90.27770 -84.91600
	CHANNELS 6 Xposition Yposition Zposition Zrotation Xrotation Yrotation
	JOINT Spine
	{
		OFFSET 0.00000 13.20850 -1.60436
		CHANNELS 3 Zrotation Xrotation Yrotation
		JOINT Spine1
		{
			OFFSET 0.00000 8.61716 0.00000
			CHANNELS 3 Zrotation Xrotation Yrotation
			JOINT Spine2
			{
				OFFSET 0.00000 8.61717 0.00000
				CHANNELS 3 Zrotation Xrotation Yrotation
				JOINT Spine3
				{
					OFFSET 0.00000 8.61717 0.00000
					CHANNELS 3 Zrotation Xrotation Yrotation
					JOINT Neck
					{
						OFFSET 0.00000 11.07920 1.10792
						CHANNELS 3 Zrotation Xrotation Yrotation
						JOINT Neck1
						{
							OFFSET 0.00000 7.08032 0.00000
							CHANNELS 3 Zrotation Xrotation Yrotation
							JOINT Head
							{
								OFFSET 0.00000 7.08031 0.00000
								CHANNELS 3 Zrotation Xrotation Yrotation
								End site
								{
									OFFSET 0.00000 0.00000 0.00000
								}
							}
						}
					}
					JOINT RightShoulder
					{
						OFFSET -0.01000 7.91373 5.19711
						CHANNELS 3 Zrotation Xrotation Yrotation
						JOINT RightArm
						{
							OFFSET -18.41580 0.00000 0.00000
							CHANNELS 3 Zrotation Xrotation Yrotation
							JOINT RightForeArm
							{
								OFFSET -29.11090 0.00000 0.00000
								CHANNELS 3 Zrotation Xrotation Yrotation
								JOINT RightHand
								{
									OFFSET -24.65040 0.00000 0.00000
									CHANNELS 3 Zrotation Xrotation Yrotation
									JOINT RightHandThumb1
									{
										OFFSET -5.35114 -0.85590 3.97906
										CHANNELS 3 Zrotation Xrotation Yrotation
										JOINT RightHandThumb2
										{
											OFFSET -4.52789 0.00000 0.00000
											CHANNELS 3 Zrotation Xrotation Yrotation
											JOINT RightHandThumb3
											{
												OFFSET -2.46976 0.00000 0.00000
												CHANNELS 3 Zrotation Xrotation Yrotation
												End site
												{
													OFFSET 0.00000 0.00000 0.00000
												}
											}
										}
									}
									JOINT RightHandIndex1
									{
										OFFSET -14.26970 0.00000 2.88139
										CHANNELS 3 Zrotation Xrotation Yrotation
										JOINT RightHandIndex2
										{
											OFFSET -5.48836 0.00000 0.00000
											CHANNELS 3 Zrotation Xrotation Yrotation
											JOINT RightHandIndex3
											{
												OFFSET -3.01859 0.00000 0.00000
												CHANNELS 3 Zrotation Xrotation Yrotation
												End site
												{
													OFFSET 0.00000 0.00000 0.00000
												}
											}
										}
									}
									JOINT RightHandMiddle1
									{
										OFFSET -14.26970 0.00000 -0.09147
										CHANNELS 3 Zrotation Xrotation Yrotation
										JOINT RightHandMiddle2
										{
											OFFSET -6.17441 0.00000 0.00000
											CHANNELS 3 Zrotation Xrotation Yrotation
											JOINT RightHandMiddle3
											{
												OFFSET -3.56743 0.00000 0.00000
												CHANNELS 3 Zrotation Xrotation Yrotation
												End site
												{
													OFFSET 0.00000 0.00000 0.00000
												}
											}
										}
									}
									JOINT RightHandRing1
									{
										OFFSET -12.69180 0.00000 -3.06433
										CHANNELS 3 Zrotation Xrotation Yrotation
										JOINT RightHandRing2
										{
											OFFSET -5.62556 0.00000 0.00000
											CHANNELS 3 Zrotation Xrotation Yrotation
											JOINT RightHandRing3
											{
												OFFSET -3.56744 0.00000 0.00000
												CHANNELS 3 Zrotation Xrotation Yrotation
												End site
												{
													OFFSET 0.00000 0.00000 0.00000
												}
											}
										}
									}
									JOINT RightHandPinky1
									{
										OFFSET -11.11390 0.00000 -6.03719
										CHANNELS 3 Zrotation Xrotation Yrotation
										JOINT RightHandPinky2
										{
											OFFSET -4.52789 0.00000 0.00000
											CHANNELS 3 Zrotation Xrotation Yrotation
											JOINT RightHandPinky3
											{
												OFFSET -2.46976 0.00000 0.00000
												CHANNELS 3 Zrotation Xrotation Yrotation
												End site
												{
													OFFSET 0.00000 0.00000 0.00000
												}
											}
										}
									}
								}
							}
						}
					}
					JOINT LeftShoulder
					{
						OFFSET 0.01000 7.91373 5.19711
						CHANNELS 3 Zrotation Xrotation Yrotation
						JOINT LeftArm
						{
							OFFSET 18.41580 0.00000 0.00000
							CHANNELS 3 Zrotation Xrotation Yrotation
							JOINT LeftForeArm
							{
								OFFSET 29.11090 0.00000 0.00000
								CHANNELS 3 Zrotation Xrotation Yrotation
								JOINT LeftHand
								{
									OFFSET 24.65040 0.00000 0.00000
									CHANNELS 3 Zrotation Xrotation Yrotation
									JOINT LeftHandThumb1
									{
										OFFSET 5.35114 -0.85590 3.97906
										CHANNELS 3 Zrotation Xrotation Yrotation
										JOINT LeftHandThumb2
										{
											OFFSET 4.52789 0.00000 0.00000
											CHANNELS 3 Zrotation Xrotation Yrotation
											JOINT LeftHandThumb3
											{
												OFFSET 2.46977 0.00000 0.00000
												CHANNELS 3 Zrotation Xrotation Yrotation
												End site
												{
													OFFSET 0.00000 0.00000 0.00000
												}
											}
										}
									}
									JOINT LeftHandIndex1
									{
										OFFSET 14.26970 0.00000 2.88139
										CHANNELS 3 Zrotation Xrotation Yrotation
										JOINT LeftHandIndex2
										{
											OFFSET 5.48836 0.00000 0.00000
											CHANNELS 3 Zrotation Xrotation Yrotation
											JOINT LeftHandIndex3
											{
												OFFSET 3.01859 0.00000 0.00000
												CHANNELS 3 Zrotation Xrotation Yrotation
												End site
												{
													OFFSET 0.00000 0.00000 0.00000
												}
											}
										}
									}
									JOINT LeftHandMiddle1
									{
										OFFSET 14.26970 0.00000 -0.09147
										CHANNELS 3 Zrotation Xrotation Yrotation
										JOINT LeftHandMiddle2
										{
											OFFSET 6.17440 0.00000 0.00000
											CHANNELS 3 Zrotation Xrotation Yrotation
											JOINT LeftHandMiddle3
											{
												OFFSET 3.56744 0.00000 0.00000
												CHANNELS 3 Zrotation Xrotation Yrotation
												End site
												{
													OFFSET 0.00000 0.00000 0.00000
												}
											}
										}
									}
									JOINT LeftHandRing1
									{
										OFFSET 12.69180 0.00000 -3.06433
										CHANNELS 3 Zrotation Xrotation Yrotation
										JOINT LeftHandRing2
										{
											OFFSET 5.62556 0.00000 0.00000
											CHANNELS 3 Zrotation Xrotation Yrotation
											JOINT LeftHandRing3
											{
												OFFSET 3.56744 0.00000 0.00000
												CHANNELS 3 Zrotation Xrotation Yrotation
												End site
												{
													OFFSET 0.00000 0.00000 0.00000
												}
											}
										}
									}
									JOINT LeftHandPinky1
									{
										OFFSET 11.11390 0.00000 -6.03719
										CHANNELS 3 Zrotation Xrotation Yrotation
										JOINT LeftHandPinky2
										{
											OFFSET 4.52789 0.00000 0.00000
											CHANNELS 3 Zrotation Xrotation Yrotation
											JOINT LeftHandPinky3
											{
												OFFSET 2.46976 0.00000 0.00000
												CHANNELS 3 Zrotation Xrotation Yrotation
												End site
												{
													OFFSET 0.00000 0.00000 0.00000
												}
											}
										}
									}
								}
							}
						}
					}
					JOINT pCube4
					{
						OFFSET 0.00000 10.91090 1.10792
						CHANNELS 3 Zrotation Xrotation Yrotation
						End site
						{
							OFFSET 0.00000 0.00000 0.00000
						}
					}
				}
			}
		}
	}
	JOINT RightUpLeg
	{
		OFFSET -9.98441 0.00000 0.00000
		CHANNELS 3 Zrotation Xrotation Yrotation
		JOINT RightLeg
		{
			OFFSET 0.00000 -42.11790 0.00000
			CHANNELS 3 Zrotation Xrotation Yrotation
			JOINT RightFoot
			{
				OFFSET 0.00000 -45.00020 -0.00001
				CHANNELS 3 Zrotation Xrotation Yrotation
				JOINT RightForeFoot
				{
					OFFSET 0.00000 -3.74820 0.00000
					CHANNELS 3 Zrotation Xrotation Yrotation
					JOINT RightToeBase
					{
						OFFSET 0.00000 0.06325 14.43120
						CHANNELS 3 Zrotation Xrotation Yrotation
						End site
						{
							OFFSET 0.00000 0.00000 0.00000
						}
					}
				}
			}
		}
	}
	JOINT LeftUpLeg
	{
		OFFSET 9.98441 0.00000 0.00000
		CHANNELS 3 Zrotation Xrotation Yrotation
		JOINT LeftLeg
		{
			OFFSET 0.00000 -42.11800 0.00000
			CHANNELS 3 Zrotation Xrotation Yrotation
			JOINT LeftFoot
			{
				OFFSET 0.00000 -45.00070 0.00000
				CHANNELS 3 Zrotation Xrotation Yrotation
				JOINT LeftForeFoot
				{
					OFFSET 0.00000 -3.74824 0.00000
					CHANNELS 3 Zrotation Xrotation Yrotation
					JOINT LeftToeBase
					{
						OFFSET 0.00000 0.06325 14.43110
						CHANNELS 3 Zrotation Xrotation Yrotation
						End site
						{
							OFFSET 0.00000 0.00000 0.00000
						}
					}
				}
			}
		}
	}
}
MOTION
Frames: 4
Frame Time: 0.050000
0.02619571565252168 0.014358802308359961 -0.010804100096868281 -0.007789359161462348 -0.04847153978988545 -0.016124732722797654 -3.680460851382087 6.146168606604687 -0.7203025582132481 -1.0488631426470836 4.099827535516924 0.48437305986495655 -1.021504947665432 0.7523830911258371 -0.0648127619845403 1.259816991692741 1.0341501397999355 -0.7628283993598552 -0.03798088063621056 9.675505667569421 -1.1293620168374667 -0.44043047023757664 -1.678519205115073 -5.980608846446863 0.007472300155838746 -16.230847030624986 -0.45032510134469367 4.669056836986502 -0.7514800663452262 -14.48635914977901 62.62629207292423 17.401421452964264 12.975253299473515 17.96989551139066 6.151290983600199 94.32789530400193 13.83235893253649 -0.3041627307554555 -7.955423006675839 4.516748605178496 -0.15220924631853067 -1.5616191034256062 0.030779797551954775 -0.025541347765856627 -56.237060103372876 -0.03742076253160713 -0.03569900069122058 -56.27081154556189 -38.741682060512716 0.0035610063131103838 0.01847788051416434 0.00413361666275933 -0.025168198445140254 0.013703718773229996 0.0012322630886394499 0.014175536849468961 0.011291468881067038 -36.703482414376786 -0.0025648573277764464 -0.027583837476513818 -0.04960887317563391 0.04120067890207901 -0.021178234934420188 -0.013560758420901176 -0.011250282162060752 -0.020352050027182454 -19.785397463785603 -0.009598530483134197 -0.031804420605182765 -0.024417171162935236 -0.020537166127931394 0.041315345506216565 -0.039087853327774716 0.04080303894355147 0.04520129126597029 24.06912542415284 0.0042043056313276796 -0.0185264390748108 28.880422956284633 -0.0164267225081009 -0.042328882274884655 28.844906973974492 -0.0339438806469514 -0.026856829521180958 -5.040944587598492 -0.5062247068554654 12.918836974963519 -62.49679963353303 28.165807848293213 -7.376945432116609 -2.272039542599778 3.7815779894902226 -63.85294334115086 -13.541193453720288 3.821218771790841 0.3459736376435107 -0.4750736936011891 0.02556311433188256 -8.108619968790869 0.040128961100616554 0.007044188608382032 44.56395113696641 0.04689533851289745 -0.02713025553092122 44.58647467774806 12.44618016701801 0.005350816511641591 0.0039108375705967395 0.013263284162126679 -0.0019578634675998735 -0.03484837070040917 -0.03788776291597652 -0.02416067678217219 0.021730570540791774 11.131544204364737 0.01672001388149745 0.03556226798125403 -0.018719479580341147 -0.0024747514637191593 -0.0052124860096807646 0.014884148989514085 0.034957945763766374 0.0016851119757968808 4.723169548904374 0.00353968767596464 -0.010876579759780944 -0.01454486871892242 -0.011974886826822026 0.0010642754889342728 -0.0014549540923573137 0.004245908739781237 -0.04939022282607391 -5.578033252993731 0.029331492274461635 -0.008437248741063408 -6.703976193946265 -0.0010145554006234271 -0.040729860998337926 -6.757778609123545 -0.028948547191169523 0.02195113334417774 0.04815275442122874 0.03780617690220685 -0.04003765414807033 8.012902713982902 3.493836751351464 -19.19363645215615 -0.02765522811928451 10.389517587349966 0.037035876125791636 -5.637509678139384 -15.615142359919565 3.2169202149192886 0.016267944936493618 0.03472974610631098 0.001683914879063147 -0.033415280457713865 4.661526455345308 -0.01409230311134628 12.479444029362071 -8.276741376564305 6.882536278126191 0.0060362288258032845 46.40700020417933 0.023580607337292517 -4.325124448782034 -14.753516580542453 -3.8608750002520367 -0.04661013411624888 0.03016565243625954 0.021379402736093546 -0.03635437157763844 -10.748947559932668 0.043418234667548405 
0.004502951607268061 0.04787716765703387 -0.026074254187170562 0.014430526204920885 0.04664292798331201 -0.024696578513036443 -3.572596681764058 6.308652127213614 -0.7661306423332316 -1.0799030694675182 4.082497864813585 0.47782938547068304 -1.0087327076703885 0.7446914200317871 -0.07053181922161289 1.1766224271992376 1.0021549189893069 -0.8180534214503464 -0.0002472990782579343 9.556092669938783 -1.1683207908347095 -0.4009381966012395 -1.7080791375371058 -5.949689556322347 0.045521719109735445 -16.318111579526796 -0.44409687367913886 4.841118257314181 -0.8545707870254835 -14.38437948228678 62.673861757070384 17.033626573076436 12.600121078522061 19.57727605308508 6.715643773775944 93.80850001393608 14.230037284597175 -0.27893261328824037 -8.079442633650356 4.521886116187408 -0.09622587427721667 -1.624215442266055 0.029481532082950707 0.032804869235373055 -56.233957498926685 0.029930192647829982 0.014086783363048245 -56.215413292777214 -38.78682166138256 0.012117912305903015 0.04545066708161154 0.01425164526255316 0.030919902396626096 -0.015104374281407887 0.019715155720260197 0.0045874015927813835 -0.031286325794872914 -36.723993233007185 -0.013811264996881085 0.015934618496519875 0.018908169390168355 0.037197018798725896 0.039141775022261086 -0.01934415943307801 0.028931234817978654 0.020522332942954656 -19.804777119105204 -0.03721014551918705 0.030870553187965732 -0.03554468276520978 0.02261097284828742 -0.016638881936283184 -0.025733286634053446 0.046786604666719384 -0.00228537195570472 24.088038917334526 -0.03820056925828038 -0.025496281656246334 28.874121955104474 0.018710873513316205 -0.03421883058812356 28.886258594631098 0.00926480947135594 -0.024485190684262092 -4.958175126209922 -0.49579847450901454 12.7894416792878 -62.15708306717596 28.25681120383352 -7.691085957231803 -3.877273206905339 4.3929624768005056 -66.39979915771562 -13.952448568332205 3.3749334489143323 0.5102358670072159 -0.5009826788487111 0.0955342009724505 -8.154316117682859 0.043422216911028544 0.0021251662167260017 44.56698056515662 -0.04459288782869876 0.020374254392520334 44.538536514189474 12.508623152662564 -0.04723194964504447 0.03216256348063194 -0.0020465907940898855 -0.0302137768436697 0.011235172929278609 0.011519307635727515 -0.025645890103584045 0.01976842233729715 11.07210512616132 -0.012477748588977778 -0.03086590069374772 0.038411114863188024 -0.03441024264710437 -0.0445232282971618 0.020368753943079413 0.007592285460510883 0.01209186448629195 4.764442879276252 -0.003062804004858814 0.03970862788091881 0.035243119750866345 -0.03111385014545903 -0.033537330120313506 -0.016767415765516713 0.009328596414912849 -0.0315840176122457 -5.60156795773275 -0.03231061489429892 -0.024422343280670233 -6.710559405799315 -0.018445265307972025 0.01600434840680836 -6.72303028983776 0.003347555613389422 -0.02342550025948302 0.029242955548139368 -0.01666424801921123 0.0017523602755684538 7.997986400633282 3.5114117568519556 -19.187496943157623 0.011931882793187586 10.353380572061116 0.058123030423032074 -5.6154095397407175 -15.673387154906434 3.1777279879012266 0.00802711235792978 -0.027004167518340668 0.02186163585244271 0.011216856776992261 4.651954135116812 -0.04771372559425416 12.484450473145206 -8.188636705829769 6.912644455433091 0.04272061541525392 46.332189462535794 0.011897471462914158 -4.320166219374756 -14.73491199637079 -3.8353783219717688 0.045675391113883926 -0.03496505762491227 0.04155159878497337 0.0020787088881401156 -10.773755302087405 0.04751510537626785 
0.02117166300060782 -0.0239494824995535 -0.02617382901588581 0.03426608708713552 -0.0149867792070223 -0.021537302708709807 -3.477072508677678 6.327441797314824 -0.7278640348054695 -1.00403129077471 4.043123594960114 0.40146988633210284 -0.9729065058223 0.7557610983546026 -0.190394615873203 1.1745121025698133 1.006931821462136 -0.8238126579913071 -0.051045034202863326 9.404601027687299 -1.0584314689250864 -0.43340679001267995 -1.804711021538643 -5.748143508303039 -0.024444466750374823 -16.43042828902597 -0.4620989453011219 4.755293818760173 -0.7889093067187085 -14.24452641099063 63.06574043725359 16.83910601865176 12.134375849348368 21.625200162673906 7.165436150911558 93.85278024170638 14.690186150597452 -0.3040151210829788 -8.268545515640211 4.507907616860573 -0.10845786595813887 -1.5994354685954695 0.026675903954317355 0.0020475095342019777 -56.21296660008391 0.03779458363615854 0.0013447669990565058 -56.249062959341764 -38.777448732111836 0.023049810657317316 0.010718323025217451 -0.020392894781523882 -0.0027415404078797636 -0.04357400528360716 0.04392458442768067 -0.0323888564005902 -0.021832954768874344 -36.66019602845973 -0.011718262615709248 0.01105098232014912 0.01610537402494142 0.04723413935796863 0.02729766686207755 0.03569092374296829 0.022856833522753948 -0.003087589519809262 -19.77509580933622 0.0016377338169342912 -0.007310064384157824 -0.039846999930208495 -0.007416346945339385 0.006977891182402663 0.006915538629614207 0.04397197924798134 -0.0019281635688476895 24.069964066110025 0.016342212384943912 0.038355514601548214 28.914478869897057 -0.045255986671115266 -0.011056176438248116 28.89097833730404 0.0024530935238098457 0.022615217608529876 -4.628233628254656 -0.4542916141822054 12.620231512864303 -62.11877540335801 28.528394755064014 -8.217612169145866 -5.843848578205943 5.040439094709341 -69.48727686288386 -14.171027827290962 2.757729276783529 0.8303957895967926 -0.43246656506780834 0.038086431826619555 -8.10455604939544 -0.02893101306321151 0.013022021151893123 44.59143566697397 -0.005964613762386418 -0.028854719090887163 44.58460696387942 12.454646672724246 -0.017763288108863594 0.023248550811602757 0.012854845439921924 -0.013945361689211117 -0.035418970347009325 0.04279025510438835 -0.03334938417889614 -0.006116302473935514 11.113953634272038 0.0033316516939218017 -0.006212403317534377 0.026758554904005156 -0.020577789357740673 0.047345281130519536 -0.0369622738872402 -0.039082315145373116 0.02158732769140682 4.804516336228248 0.03542070452159138 -0.0035834538620559734 0.038273450478241385 -0.009647568561338315 0.03285031941817162 -0.028304705575393455 0.009949680081418444 -0.009903390790936975 -5.561846771891816 -0.04287022027980494 -0.007278262136990636 -6.733617258956378 -0.011173984613040682 0.041351956903361235 -6.689292969513199 0.035588045053909105 -0.013034808387345017 0.04439339192994101 -0.04301496317100574 0.015321059026936555 8.040729948895736 3.4876405990817005 -19.193276047408524 -0.015760256070938537 10.401260603379166 -0.02839326864237741 -5.591192671063783 -15.650549126777284 3.2226076194708853 -0.002501248825807888 -0.019353700456539506 -0.04756981114194317 -0.021697134002904996 4.669681312435172 -0.04570770637412072 12.503878599840354 -8.23351302432562 6.928543914471315 0.033977964249085765 46.412531136626846 0.019922871874327112 -4.3224451996915585 -14.77449482109761 -3.7916681978483378 0.004695569568014502 -0.017169099258438278 0.017870744092553122 -0.003942000891187231 -10.736448753706723 0.004219661741946892 
0.037257682406370445 -0.04137778288877308 -0.015768562322778488 -0.04086673119530092 -0.04384269999407121 0.03585376724908456 -3.2498111494757604 6.169291616012044 -0.7562183732037342 -1.019578881368209 3.9999351907588205 0.4265945560501914 -0.9783466337831064 0.6726049063597914 -0.22919635847958186 1.167156822349333 0.9561893441471904 -0.8664266491492901 -0.13140810077938497 9.414508770154272 -1.0324398803468784 -0.42328544285515446 -1.6944942010437942 -5.448787109109072 0.010267578376813205 -16.42309707186076 -0.37373406201980364 4.575332972186854 -0.7022930350088332 -14.10361684059181 63.583058763900915 16.641853097211328 11.55220200366329 24.046618186383043 7.703036519605556 94.06826408218211 14.933762946639892 -0.2523396384376586 -8.35722344611605 4.543101606616304 -0.16675138645571258 -1.5836533233292578 -0.018726222233162355 0.030180844130925283 -56.20358757201279 -0.020456288382828 0.04910346380153813 -56.21473520403432 -38.761190680837736 0.010061264106743077 -0.003157259927442578 0.0005257781938503452 -0.02111668817516119 0.023158127479293182 0.0485951566698228 0.026965690124237413 -0.043497796979134015 -36.728679054732744 -0.01184977642988804 -0.0035493441231322182 -0.02741098809001534 0.02964636600891326 0.029578989768944984 0.008961071589816322 -0.01256448922272755 -0.01852415833041457 -19.779912746062305 -0.007450586118855514 0.025303497974250747 0.03332587557392015 0.04650546984700898 -0.03754719606745175 0.017642906564652415 0.006966939581275079 -0.039811037182397674 24.085847702980793 0.025868264686636635 -0.017256271294179823 28.88309539518648 -0.025625424883978423 0.04957359352184175 28.86490509257438 -0.038750785208700435 -0.007375521718272851 -4.161751274238424 -0.33657445513622564 12.464458619172898 -62.22507841265168 28.70395718380995 -8.914654256749591 -7.987512661762405 5.601022442806795 -73.06945261711492 -14.22258618078428 2.281826616471727 0.9286138813831064 -0.4342832303322449 0.061510179349314485 -8.111778551433515 0.004300038800073808 0.04090331797407744 44.57705092446559 0.017661633001504536 0.046011717402012146 44.573368310652846 12.448020235166513 -0.017991640842270142 -0.0403794468801039 0.021459266911056846 -0.0276161651216553 0.020734015325376966 -0.01880487862016907 0.020790811988260806 -0.0042694210229005675 11.0968546378701 0.04463565487322747 -0.027637704943126257 0.021829071050632805 -0.03247890195290734 -0.009560881086115322 -0.04226170394847485 -0.0010119591980643449 0.010190100460897819 4.756943777496683 -0.016743085440064788 0.043352480719739704 0.025347398148222653 -0.005514730250832871 -0.015109387437789203 0.011711425260780443 -0.014061236166598727 -0.04441767167480667 -5.624420005848226 -0.006985366591858885 -0.03744903959073067 -6.708661849674266 -0.028464588589211064 -0.0442386739490315 -6.76787664424966 -0.030458103724026065 -0.019640428935260218 0.01133529724371838 0.043488167291257075 0.0034982683218533397 8.031228900431994 3.49722891525716 -19.193875349797842 -0.04513092123916889 10.4077631603736 0.02553315528794341 -5.640059268417801 -15.630810139007606 3.1758377883695763 0.018273064279420943 -0.015266960541216023 -0.014039296213877662 -0.024446568706562123 4.649653333877717 0.004140764520488634 12.477484238563129 -8.23856123203688 6.834046531921816 -0.023862921664623248 46.35066523030859 0.0279846316120033 -4.300112249585645 -14.786497328933955 -3.825402256197285 0.031620502512080845 0.008396162216790163 0.012774381058138247 0.02307634665295172 -10.711558730062723 -0.02900628089391056 
